<svg xmlns="http://www.w3.org/2000/svg" width="18" height="18" viewBox="0 0 18 18" fill="none">
  <path d="M9 15.7498C7.1125 15.7498 5.51575 15.0966 4.20975 13.7901C2.90375 12.4836 2.2505 10.8868 2.25 8.99982C2.25 7.27482 2.8125 5.77782 3.9375 4.50882C5.0625 3.23982 6.5 2.49932 8.25 2.28732C8.4125 2.26232 8.55625 2.28432 8.68125 2.35332C8.80625 2.42232 8.90625 2.51282 8.98125 2.62482C9.05625 2.73682 9.097 2.86807 9.1035 3.01857C9.11 3.16907 9.063 3.31282 8.9625 3.44982C8.75 3.77482 8.5905 4.11857 8.484 4.48107C8.3775 4.84357 8.3245 5.22482 8.325 5.62482C8.325 6.74982 8.71875 7.70607 9.50625 8.49357C10.2937 9.28107 11.25 9.67482 12.375 9.67482C12.7625 9.67482 13.147 9.61857 13.5285 9.50607C13.91 9.39357 14.2505 9.23732 14.55 9.03732C14.6875 8.94982 14.8282 8.90932 14.9722 8.91582C15.1162 8.92232 15.2443 8.95657 15.3563 9.01857C15.4813 9.08107 15.5783 9.17482 15.6473 9.29982C15.7163 9.42482 15.738 9.57482 15.7125 9.74982C15.5375 11.4748 14.8033 12.9061 13.5098 14.0436C12.2163 15.1811 10.713 15.7498 9 15.7498ZM9 14.2498C10.1 14.2498 11.0875 13.9466 11.9625 13.3401C12.8375 12.7336 13.475 11.9431 13.875 10.9686C13.625 11.0311 13.375 11.0811 13.125 11.1186C12.875 11.1561 12.625 11.1748 12.375 11.1748C10.8375 11.1748 9.528 10.6341 8.4465 9.55257C7.365 8.47107 6.8245 7.16182 6.825 5.62482C6.825 5.37482 6.84375 5.12482 6.88125 4.87482C6.91875 4.62482 6.96875 4.37482 7.03125 4.12482C6.05625 4.52482 5.2655 5.16232 4.659 6.03732C4.0525 6.91232 3.7495 7.89982 3.75 8.99982C3.75 10.4498 4.2625 11.6873 5.2875 12.7123C6.3125 13.7373 7.55 14.2498 9 14.2498Z" fill="#2C2E3A"/>
</svg>