<svg width="124" height="98" viewBox="0 0 124 98" fill="none" xmlns="http://www.w3.org/2000/svg">
<g clip-path="url(#clip0_476_1085)">
<path d="M76.2014 63.1369C76.7082 61.8173 77.1158 60.4728 77.4366 59.102L77.6813 57.9553C77.9889 56.4013 78.1739 54.835 78.2451 53.2645C78.2814 52.4037 77.7576 51.5877 76.9328 51.2114L76.9325 51.2113L70.2094 48.1415L69.8785 47.9904L69.8135 47.6324C69.4428 45.5887 68.8045 43.5852 67.9025 41.6915L67.7457 41.3622L67.9271 41.0459L71.6028 34.6335C72.0595 33.8353 72.0091 32.8783 71.4682 32.1999L71.4666 32.1979C70.3922 30.8408 69.1894 29.5508 67.8589 28.3456C66.5284 27.1404 65.1274 26.0718 63.6653 25.1474L63.6591 25.1434L63.6591 25.1434C62.9309 24.6721 61.9738 24.7162 61.2246 25.249L76.2014 63.1369ZM76.2014 63.1369L76.188 63.1376L76.0214 63.5504C75.6961 64.3566 74.888 64.8807 73.9815 64.877L73.9772 64.877L66.574 64.8937L66.2096 64.8946L66.0026 65.1944C65.4175 66.042 64.7709 66.8654 64.0625 67.6475C63.3541 68.4296 62.5984 69.1541 61.8127 69.82L61.5347 70.0556L61.5698 70.4182L62.2832 77.787L62.2836 77.7914C62.3766 78.6927 61.9352 79.5481 61.1656 79.9516C59.7782 80.675 58.3485 81.2791 56.8765 81.7811L55.7595 82.1377C54.2432 82.5971 52.7026 82.9357 51.1465 83.1614L51.1436 83.1619C50.2898 83.2894 49.4334 82.8465 48.9747 82.0578L48.9746 82.0576L45.2568 75.6699L45.0738 75.3555L44.7112 75.3262C42.6409 75.1588 40.5842 74.7211 38.6107 74.0102L38.2677 73.8867L37.9707 74.0983L31.952 78.3885C31.2027 78.9216 30.2454 78.9659 29.517 78.4944L29.5149 78.4931C28.0584 77.5577 26.6561 76.488 25.3256 75.2828C23.9951 74.0776 22.7924 72.7877 21.7179 71.4305L21.7164 71.4286C21.1756 70.7503 21.1251 69.7936 21.5815 68.9955L76.2014 63.1369ZM55.2054 29.5395L61.2241 25.2494L21.5818 68.995L25.2575 62.5826L25.4389 62.2662L25.2821 61.937C24.3801 60.0432 23.7418 58.0397 23.371 55.996L23.3059 55.6371L22.9738 55.4864L16.2527 52.4349C16.2526 52.4349 16.2525 52.4348 16.2524 52.4348C15.4275 52.0583 14.9037 51.242 14.9404 50.381C15.0116 48.8107 15.1966 47.2446 15.5042 45.6908L15.7489 44.5444C16.1032 43.0303 16.5634 41.5482 17.1464 40.0963C17.4718 39.2903 18.2797 38.7666 19.1861 38.7702L19.1904 38.7702L26.5936 38.7535L26.9573 38.7526L27.1644 38.4537C27.7585 37.596 28.4053 36.7723 29.1136 35.9903C29.822 35.2083 30.5777 34.4837 31.3634 33.8178L31.6414 33.5822L31.6063 33.2196L30.8929 25.8508L30.8925 25.8465C30.7995 24.9449 31.2411 24.0892 32.0111 23.6859C33.3984 22.9626 34.8279 22.3586 36.2996 21.8567L37.4165 21.5002C38.9328 21.0407 40.4735 20.7021 42.0296 20.4764L42.0325 20.476C42.8863 20.3484 43.7427 20.7913 44.2014 21.58L44.2015 21.5802L47.9193 27.9679L48.1023 28.2823L48.4649 28.3117C50.5352 28.4791 52.5919 28.9168 54.5654 29.6276L54.9084 29.7512L55.2054 29.5395ZM39.3336 59.8371C41.459 61.7624 44.2622 62.7644 47.1265 62.6229C49.9907 62.4813 52.6815 61.2077 54.6067 59.0823C56.5319 56.9569 57.534 54.1537 57.3924 51.2894C57.2509 48.4252 55.9773 45.7344 53.8519 43.8092C51.7264 41.884 48.9233 40.8819 46.059 41.0234C43.1947 41.165 40.504 42.4386 38.5788 44.564C36.6535 46.6895 35.6515 49.4926 35.793 52.3569C35.9346 55.2212 37.2082 57.9119 39.3336 59.8371Z" fill="#2C2E3A" stroke="#2C2E3A" stroke-width="1.39241"/>
</g>
<g clip-path="url(#clip1_476_1085)">
<path d="M118.89 29.6805C118.686 28.7723 118.422 27.8846 118.103 27.0126L117.807 26.2522C117.395 25.2372 116.908 24.2613 116.353 23.3258C116.091 22.8882 115.559 22.6453 115.011 22.7298L115.011 22.7298L109.906 23.5145L109.547 23.5698L109.296 23.3062C108.308 22.2677 107.182 21.3539 105.945 20.6034L105.633 20.4142L105.611 20.0502L105.299 14.8952L118.89 29.6805ZM118.89 29.6805L118.885 29.6842L118.972 30.1207C119.073 30.627 118.844 31.1592 118.381 31.4609L118.377 31.4633L114.059 34.3118L113.755 34.5124L113.746 34.8766C113.73 35.5874 113.668 36.3071 113.556 37.026C113.443 37.7449 113.282 38.4489 113.081 39.1308L112.978 39.4802L113.206 39.7641L116.448 43.795L116.451 43.7984C116.8 44.2269 116.856 44.8032 116.606 45.2542C116.078 46.1984 115.481 47.0902 114.821 47.9395L114.307 48.5731C113.605 49.4141 112.842 50.1947 112.028 50.9162L112.026 50.9182C111.646 51.2571 111.07 51.3241 110.569 51.0737L110.569 51.0735L105.948 48.7678L105.622 48.6054L105.303 48.7798C104.045 49.4672 102.694 49.9933 101.287 50.3304L100.932 50.4154L100.8 50.7553L98.9292 55.5689L118.89 29.6805ZM79.9705 46.297L85.0662 45.5024L85.4266 45.4462L85.678 45.7105C86.6657 46.749 87.7923 47.6628 89.0291 48.4133L89.3409 48.6025L89.3629 48.9665L89.6745 54.1215C89.709 54.6851 90.0552 55.1453 90.5423 55.305L90.5446 55.3057C91.6817 55.6829 92.8677 55.9725 94.0955 56.1645C95.3234 56.3566 96.5411 56.4429 97.7391 56.431L97.7415 56.4309C98.2539 56.4276 98.7239 56.0953 98.929 55.5695L79.9705 46.297ZM79.9705 46.297C79.9704 46.2971 79.9703 46.2971 79.9702 46.2971C79.4219 46.3815 78.8905 46.1384 78.6288 45.7009M79.9705 46.297L78.6288 45.7009M78.6288 45.7009C78.0737 44.7654 77.5861 43.7895 77.1742 42.7745L76.8788 42.0143C76.5091 41.0041 76.2128 39.9729 75.999 38.9131C75.898 38.4069 76.1272 37.8748 76.5907 37.5733L76.5944 37.5709L80.9125 34.7224L81.216 34.5222L81.2251 34.1586C81.2431 33.4382 81.3043 32.7182 81.4167 31.9994C81.5291 31.2806 81.6906 30.5766 81.8918 29.8947L81.9949 29.5452L81.7666 29.2613L78.5244 25.2304L78.5217 25.227C78.1724 24.7984 78.1166 24.2218 78.3672 23.7707C78.8944 22.8267 79.4914 21.9351 80.152 21.086L80.6654 20.4524C81.3677 19.6113 82.1302 18.8307 82.9447 18.1092L82.9468 18.1072C83.3262 17.7684 83.9021 17.7013 84.4037 17.9518L84.4039 17.9519L89.0249 20.2576L89.3504 20.4201L89.6696 20.2456C90.9272 19.5582 92.2791 19.0321 93.686 18.695L94.0406 18.6101L94.1727 18.2702L96.0434 13.4565C96.2484 12.9304 96.7185 12.5978 97.2311 12.5945L97.2311 12.5945L97.2385 12.5944C98.4345 12.574 99.6506 12.6601 100.878 12.8522C102.106 13.0442 103.292 13.3338 104.429 13.711L104.432 13.7117C104.919 13.8713 105.265 14.3313 105.299 14.8946L78.6288 45.7009ZM96.2908 42.1853C98.3255 42.5036 100.403 42.0005 102.067 40.7867C103.731 39.573 104.844 37.748 105.163 35.7133C105.481 33.6786 104.978 31.6008 103.764 29.937C102.55 28.2732 100.725 27.1597 98.6906 26.8415C96.6558 26.5232 94.578 27.0263 92.9142 28.2401C91.2505 29.4538 90.137 31.2788 89.8187 33.3135C89.5005 35.3482 90.0036 37.426 91.2174 39.0898C92.4311 40.7536 94.2561 41.8671 96.2908 42.1853Z" fill="#333333" stroke="#333333" stroke-width="1.39241"/>
</g>
<defs>
<clipPath id="clip0_476_1085">
<rect width="64.7468" height="64.7468" fill="white" transform="translate(44.333 6.0957) rotate(42.1706)"/>
</clipPath>
<clipPath id="clip1_476_1085">
<rect width="45.2415" height="45.2415" fill="white" transform="translate(78.6377 8.66895) rotate(8.88898)"/>
</clipPath>
</defs>
</svg>
