<svg xmlns="http://www.w3.org/2000/svg" width="18" height="18" viewBox="0 0 18 18" fill="none">
  <path fill-rule="evenodd" clip-rule="evenodd" d="M13.5 7.3125C13.9476 7.3125 14.3768 7.13471 14.6932 6.81824C15.0097 6.50178 15.1875 6.07255 15.1875 5.625C15.1875 5.17745 15.0097 4.74823 14.6932 4.43176C14.3768 4.11529 13.9476 3.9375 13.5 3.9375C13.0524 3.9375 12.6232 4.11529 12.3068 4.43176C11.9903 4.74823 11.8125 5.17745 11.8125 5.625C11.8125 6.07255 11.9903 6.50178 12.3068 6.81824C12.6232 7.13471 13.0524 7.3125 13.5 7.3125ZM13.5 9C14.1312 8.99995 14.7498 8.82287 15.2854 8.48889C15.8211 8.15491 16.2523 7.6774 16.5301 7.11062C16.808 6.54384 16.9213 5.91049 16.8573 5.28253C16.7932 4.65456 16.5544 4.05714 16.1678 3.55813C15.7812 3.05912 15.2625 2.67851 14.6704 2.45956C14.0784 2.2406 13.4368 2.19206 12.8186 2.31945C12.2003 2.44684 11.6302 2.74505 11.173 3.18022C10.7157 3.61539 10.3897 4.17007 10.2319 4.78125H1.96875C1.74497 4.78125 1.53036 4.87015 1.37213 5.02838C1.2139 5.18661 1.125 5.40122 1.125 5.625C1.125 5.84878 1.2139 6.06339 1.37213 6.22162C1.53036 6.37986 1.74497 6.46875 1.96875 6.46875H10.2319C10.4189 7.19326 10.8415 7.83507 11.4331 8.29326C12.0246 8.75146 12.7517 9.00007 13.5 9ZM6.1875 12.375C6.1875 12.8226 6.00971 13.2518 5.69324 13.5682C5.37678 13.8847 4.94755 14.0625 4.5 14.0625C4.05245 14.0625 3.62323 13.8847 3.30676 13.5682C2.99029 13.2518 2.8125 12.8226 2.8125 12.375C2.8125 11.9274 2.99029 11.4982 3.30676 11.1818C3.62323 10.8653 4.05245 10.6875 4.5 10.6875C4.94755 10.6875 5.37678 10.8653 5.69324 11.1818C6.00971 11.4982 6.1875 11.9274 6.1875 12.375ZM7.76813 13.2188C7.56123 14.0126 7.07234 14.704 6.3928 15.1637C5.71327 15.6234 4.8896 15.8199 4.07573 15.7166C3.26185 15.6132 2.51347 15.217 1.97043 14.602C1.42739 13.9871 1.12686 13.1954 1.125 12.375C1.12472 11.5533 1.42419 10.7598 1.96725 10.1432C2.51031 9.5266 3.25965 9.12928 4.07475 9.02575C4.88986 8.92223 5.71474 9.1196 6.3947 9.58087C7.07466 10.0421 7.56299 10.7356 7.76813 11.5313H16.0312C16.255 11.5313 16.4696 11.6201 16.6279 11.7784C16.7861 11.9366 16.875 12.1512 16.875 12.375C16.875 12.5988 16.7861 12.8134 16.6279 12.9716C16.4696 13.1299 16.255 13.2188 16.0312 13.2188H7.76813Z" fill="#2C2E3A"/>
</svg>